<svg width="24" height="24" viewBox="0 0 24 24" fill="none" xmlns="http://www.w3.org/2000/svg">
<path d="M9 12.0006V13.0006H10V12.0006H9Z" fill="black"/>
<path d="M13.0002 12.0006L13 13.0006L14.0002 13.0006L14 12.0006H13.0002Z" fill="black"/>
<path fill-rule="evenodd" clip-rule="evenodd" d="M17.0002 10.0006L17 5.00061L15.0002 5.00064V6.00064H14.0002V7.00064L9 7.00064V6.00064H8V5.00064L6.00027 5.00061L6 10.0006L5 10.0007L5.00027 14.0007L6.00027 14.0006V15.0006H7.00027V16.0006H8V17.0006H10.0003V18.0006L13.0002 18.0006V17.0006H15.0002L15 16.0006L16.0002 16.0006L16 15.0006H17V14.0007L18.0002 14.0007V10.0006H17.0002ZM17.0002 10.0006L17 14.0007L16.0002 14.0006L16 15.0006H15.0002L15 16.0006H13.0002V17.0006H12.0002V15.0006L12.5002 15.0006V14.0006H10.5002V15.0006L11 15.0006V17.0006H10.0003V16.0006H8V15.0006H7.00027V14.0006L6.00027 14.0006L6 10.0006L7 10.0007L7.00016 7.00064H8V8.00064H9V9.00064H10V8.00064H11V9.00064H12.0002V8.00064H13.0002V9.00064L14 9.00064L14.0002 8.00064H15.0002V7.00064L16.0002 7.00064V10.0006H17.0002Z" fill="black"/>
</svg>
