<svg width="24" height="24" viewBox="0 0 24 24" fill="none" xmlns="http://www.w3.org/2000/svg">
<path d="M10 6.00061H13V7.00061H11V9.00061H10V6.00061Z" fill="black"/>
<path d="M9 10.0006H10V9.00061H9V10.0006Z" fill="black"/>
<path d="M7 10.0006V11.0006H9V10.0006H7Z" fill="black"/>
<path d="M7 15.0006H6V10.0006H7V9.00061H5V16.0006H7V15.0006Z" fill="black"/>
<path d="M9 15.0006V14.0006H7V15.0006H9Z" fill="black"/>
<path d="M10 16.0006V15.0006H9V16.0006H10Z" fill="black"/>
<path d="M13 17.0006H11V16.0006H10V18.0006H13V17.0006Z" fill="black"/>
<path d="M16 16.0006H13V17.0006H16V16.0006Z" fill="black"/>
<path d="M17 15.0006H16V16.0006H17V15.0006Z" fill="black"/>
<path d="M18 14.0006H17V15.0006H18V14.0006Z" fill="black"/>
<path d="M18 11.0006V14.0006H19V11.0006H18Z" fill="black"/>
<path d="M17 10.0006V11.0006H18V10.0006H17Z" fill="black"/>
<path d="M16 10.0006H17V9.00061H16V8.00061H14V7.00061H13V9.00061H16V10.0006Z" fill="black"/>
<path d="M16 10.0006V12.0006H14V11.0006H15V10.0006H16Z" fill="black"/>
</svg>
