<svg width="24" height="24" viewBox="0 0 24 24" fill="none" xmlns="http://www.w3.org/2000/svg">
<path d="M15 4.00061V5.00061H9V4.00061H15Z" fill="black"/>
<path d="M7 6.00061V5.00061H9V6.00061H7Z" fill="black"/>
<path d="M6 7.00061V6.00061H7V7.00061H6Z" fill="black"/>
<path d="M5 9.00061V7.00061H6V9.00061H5Z" fill="black"/>
<path d="M5 15.0006H4V9.00061H5V15.0006Z" fill="black"/>
<path d="M6 17.0006H5V15.0006H6V17.0006Z" fill="black"/>
<path d="M7 18.0006H6V17.0006H7V18.0006Z" fill="black"/>
<path d="M9 19.0006H7V18.0006H9V19.0006Z" fill="black"/>
<path d="M15 19.0006V20.0006H9V19.0006H15Z" fill="black"/>
<path d="M17 18.0006V19.0006H15V18.0006H17Z" fill="black"/>
<path d="M18 17.0006V18.0006H17V17.0006H18Z" fill="black"/>
<path d="M19 15.0006V17.0006H18V15.0006H19Z" fill="black"/>
<path d="M19 9.00061H20V15.0006H19V9.00061Z" fill="black"/>
<path d="M18 7.00061H19V9.00061H18V7.00061Z" fill="black"/>
<path d="M17 6.00061H18V7.00061H17V6.00061Z" fill="black"/>
<path d="M17 6.00061V5.00061H15V6.00061H17Z" fill="black"/>
<path d="M9 15.0006H10V16.0006H11V17.0006H12V16.0006H14V15.0006H15V13.0006H14V12.0006H12V11.0006H10V9.00061H14V10.0006H15V9.00061H14V8.00061H13V7.00061H12V8.00061H10V9.00061H9V11.0006H10V12.0006H12V13.0006H14V15.0006H10V14.0006H9V15.0006Z" fill="black"/>
</svg>
